<svg xmlns="http://www.w3.org/2000/svg" viewBox="0 0 560 200"><defs><style>.cls-1{isolation:isolate;}.cls-2{font-size:60px;fill:#3d4a4c;font-family:Montserrat-Bold, Montserrat;font-weight:700;letter-spacing:-0.01em;}.cls-3{letter-spacing:-0.02em;}.cls-4{letter-spacing:-0.01em;}.cls-5{letter-spacing:-0.01em;}.cls-6{letter-spacing:-0.01em;}.cls-7{letter-spacing:-0.02em;}.cls-8{fill:#e6e6e6;}.cls-10,.cls-11,.cls-9{fill:none;stroke-linejoin:bevel;stroke-width:16px;mix-blend-mode:multiply;}.cls-9{stroke:#5dc5cc;}.cls-10,.cls-9{opacity:0.9;}.cls-10{stroke:#4159a7;}.cls-11{stroke:#0e723b;opacity:0.75;}</style></defs><title>open wob logo</title><g class="cls-1"><g id="Layer_1" data-name="Layer 1"><text class="cls-2" transform="translate(226.09 57.99)">Open<tspan class="cls-3"><tspan x="0" y="60">R</tspan><tspan class="cls-4" x="42.24" y="60">aads-</tspan></tspan><tspan x="0" y="120">i</tspan><tspan class="cls-5" x="16.92" y="120">n</tspan><tspan class="cls-3" x="54.36" y="120">f</tspan><tspan class="cls-6" x="77.1" y="120">orm</tspan><tspan class="cls-7" x="197.88" y="120">a</tspan><tspan class="cls-6" x="232.56" y="120">tie</tspan></text><circle class="cls-8" cx="32.7" cy="20" r="8"/><circle class="cls-8" cx="32.7" cy="100" r="8"/><circle class="cls-8" cx="32.7" cy="180" r="8"/><circle class="cls-8" cx="112.7" cy="20" r="8"/><circle class="cls-8" cx="112.7" cy="100" r="8"/><circle class="cls-8" cx="112.7" cy="180" r="8"/><circle class="cls-8" cx="192.7" cy="20" r="8"/><circle class="cls-8" cx="192.7" cy="100" r="8"/><circle class="cls-8" cx="192.7" cy="180" r="8"/><polygon class="cls-9" points="98.03 46.09 193.03 46.09 193.03 140.45 98.03 140.15 98.03 46.09"/><polygon class="cls-10" points="140.72 160.46 45.98 33.96 45.98 160.46 140.72 160.46"/><ellipse class="cls-11" cx="101.5" cy="115.85" rx="47.5" ry="44.61"/></g></g></svg>