<svg xmlns="http://www.w3.org/2000/svg" viewBox="0 0 560 200"><defs><style>.cls-1{isolation:isolate;}.cls-2{fill:#3d4a4c;}.cls-3{fill:#e6e6e6;}.cls-4{fill:#5dc5cc;}.cls-4,.cls-5{opacity:0.9;}.cls-4,.cls-5,.cls-6{mix-blend-mode:multiply;}.cls-5{fill:#4159a7;}.cls-6{fill:#0e723b;opacity:0.75;}</style></defs><title>open wob logo outlines</title><g class="cls-1"><g id="Layer_1" data-name="Layer 1"><path class="cls-2" d="M266.53,52.2a22.85,22.85,0,0,1-31.32,0,20.72,20.72,0,0,1-6.36-15.45,20.72,20.72,0,0,1,6.36-15.45,22.85,22.85,0,0,1,31.32,0,20.72,20.72,0,0,1,6.36,15.45A20.72,20.72,0,0,1,266.53,52.2Zm-3.18-15.42a13.72,13.72,0,0,0-3.6-9.57,11.87,11.87,0,0,0-17.7,0,13.72,13.72,0,0,0-3.6,9.57,13.62,13.62,0,0,0,3.6,9.54,11.93,11.93,0,0,0,17.7,0A13.62,13.62,0,0,0,263.35,36.78Z"/><path class="cls-2" d="M298.09,25.17a13.45,13.45,0,0,1,10.05,4.71,16.66,16.66,0,0,1,4.41,11.85,17,17,0,0,1-4.41,11.94,13.61,13.61,0,0,1-10.32,4.8,11.37,11.37,0,0,1-9.51-4.74v15.9h-9V25.71h9v3.6A13.37,13.37,0,0,1,298.09,25.17Zm-9.9,16.71a9.36,9.36,0,0,0,2.19,6.42,6.82,6.82,0,0,0,5.31,2.49,7.27,7.27,0,0,0,5.46-2.49,9,9,0,0,0,2.34-6.39,9.65,9.65,0,0,0-2.28-6.54,7,7,0,0,0-5.46-2.64,6.76,6.76,0,0,0-5.37,2.61A9.83,9.83,0,0,0,288.19,41.88Z"/><path class="cls-2" d="M346.63,53.31a18,18,0,0,1-12.81,5.16,17,17,0,0,1-12.15-4.53q-4.8-4.53-4.8-12.15t4.89-12.12a16.49,16.49,0,0,1,11.55-4.5,16.7,16.7,0,0,1,11.31,4q4.65,4,4.65,11V45H325.75a6.42,6.42,0,0,0,2.76,4.32A8.83,8.83,0,0,0,333.79,51a10.36,10.36,0,0,0,7.8-3.18ZM338,34.17a6.81,6.81,0,0,0-4.53-1.56,8.11,8.11,0,0,0-4.89,1.62A6.2,6.2,0,0,0,326,38.61h14.16A6.39,6.39,0,0,0,338,34.17Z"/><path class="cls-2" d="M364.15,40V58h-9V25.71h9v3.6a12.6,12.6,0,0,1,9.18-4.14,11.37,11.37,0,0,1,8.55,3.6,13.29,13.29,0,0,1,3.45,9.6V58h-9V39.75q0-7.44-5.46-7.44a6.55,6.55,0,0,0-4.71,1.95A7.63,7.63,0,0,0,364.15,40Z"/><path class="cls-2" d="M265.27,90q0,10.08-8,13l10.62,15H256.39l-9.3-13.38h-6.48V118h-9.36V76.05h15.9q9.78,0,14,3.3T265.27,90ZM254,95q1.74-1.56,1.74-5t-1.8-4.65q-1.8-1.26-6.3-1.26h-7V96.51h6.84Q252.25,96.51,254,95Z"/><path class="cls-2" d="M300,118h-8.46v-3.9a10.6,10.6,0,0,1-8.61,4.38,12.8,12.8,0,0,1-8.61-3,9.89,9.89,0,0,1-3.48-7.92,8.37,8.37,0,0,1,3.6-7.41q3.6-2.46,9.84-2.46H291v-.18q0-5.16-5.46-5.16a14.76,14.76,0,0,0-4.95.93,16.06,16.06,0,0,0-4.41,2.31l-4-5.82a24.08,24.08,0,0,1,14.52-4.62,15,15,0,0,1,9.6,2.94Q300,91,300,97.41ZM291,105.69v-1.56h-5.64q-5.4,0-5.4,3.36a3.09,3.09,0,0,0,1.29,2.67,6.25,6.25,0,0,0,3.69.93,6.56,6.56,0,0,0,4.23-1.47A4.78,4.78,0,0,0,291,105.69Z"/><path class="cls-2" d="M335.05,118h-8.46v-3.9a10.6,10.6,0,0,1-8.61,4.38,12.8,12.8,0,0,1-8.61-3,9.89,9.89,0,0,1-3.48-7.92,8.37,8.37,0,0,1,3.6-7.41q3.6-2.46,9.84-2.46h6.72v-.18q0-5.16-5.46-5.16a14.76,14.76,0,0,0-4.95.93,16.06,16.06,0,0,0-4.41,2.31l-4-5.82a24.08,24.08,0,0,1,14.52-4.62,15,15,0,0,1,9.6,2.94q3.72,2.94,3.72,9.3ZM326,105.69v-1.56h-5.64q-5.4,0-5.4,3.36a3.09,3.09,0,0,0,1.29,2.67,6.25,6.25,0,0,0,3.69.93,6.56,6.56,0,0,0,4.23-1.47A4.78,4.78,0,0,0,326,105.69Z"/><path class="cls-2" d="M355.6,118.47q-5.73,0-10.23-4.86a17.08,17.08,0,0,1-4.5-12.06,16.38,16.38,0,0,1,4.38-11.79,13.75,13.75,0,0,1,10.26-4.59,12.31,12.31,0,0,1,9.6,4.14V73.47h9V118h-9v-4.26A11.68,11.68,0,0,1,355.6,118.47Zm-5.67-16.56a9,9,0,0,0,2.34,6.39,7.27,7.27,0,0,0,5.46,2.49A6.82,6.82,0,0,0,363,108.3a9.36,9.36,0,0,0,2.19-6.42A9.83,9.83,0,0,0,363,95.34a6.76,6.76,0,0,0-5.37-2.61,7,7,0,0,0-5.46,2.64A9.65,9.65,0,0,0,349.93,101.91Z"/><path class="cls-2" d="M406.33,107.94a9.4,9.4,0,0,1-3.51,7.65,13.58,13.58,0,0,1-8.91,2.88,23.85,23.85,0,0,1-7.5-1.29,22.13,22.13,0,0,1-7-3.81l4-5.64a17.25,17.25,0,0,0,10.74,3.9,4.86,4.86,0,0,0,2.76-.69,2.11,2.11,0,0,0,1-1.83,2.64,2.64,0,0,0-1.41-2.1,15.91,15.91,0,0,0-4.08-1.8q-2.67-.84-4.08-1.44a23,23,0,0,1-3.21-1.74,7.45,7.45,0,0,1-3.66-6.75A8.84,8.84,0,0,1,385,88a14.64,14.64,0,0,1,9.3-2.82A20.29,20.29,0,0,1,405.73,89l-3.36,6A14.74,14.74,0,0,0,394,92.13q-4.17,0-4.17,2.28a2.19,2.19,0,0,0,1.32,2,26.71,26.71,0,0,0,4.38,1.68q3.06,1,4.35,1.47a21.88,21.88,0,0,1,3.09,1.59Q406.33,103.17,406.33,107.94Z"/><path class="cls-2" d="M412.39,104V96h21.36v8Z"/><path class="cls-2" d="M231.1,141.6a5.36,5.36,0,1,1,3.75,1.53A5.1,5.1,0,0,1,231.1,141.6ZM239.35,178h-9V145.71h9Z"/><path class="cls-2" d="M256.27,160v18h-9V145.71h9v3.6a12.6,12.6,0,0,1,9.18-4.14,11.37,11.37,0,0,1,8.55,3.6,13.29,13.29,0,0,1,3.45,9.6V178h-9V159.75q0-7.44-5.46-7.44a6.58,6.58,0,0,0-4.71,1.94A7.65,7.65,0,0,0,256.27,160Z"/><path class="cls-2" d="M295.45,143.85V146h7.8v6.48h-7.8V178h-9.06v-25.5h-3.78V146h3.78v-2a10.8,10.8,0,0,1,11.19-11.46,12.49,12.49,0,0,1,8.67,3.6L303,142.23a5.75,5.75,0,0,0-4.38-2.28,3,3,0,0,0-2.28,1A4.19,4.19,0,0,0,295.45,143.85Z"/><path class="cls-2" d="M339.73,161.84a16,16,0,0,1-4.86,11.83,18,18,0,0,1-24.42,0,16.84,16.84,0,0,1,0-23.67,17.85,17.85,0,0,1,24.42,0A16.05,16.05,0,0,1,339.73,161.84Zm-25.08,0a9.22,9.22,0,0,0,2.25,6.45,7.89,7.89,0,0,0,11.52,0,9.22,9.22,0,0,0,2.25-6.45,9.34,9.34,0,0,0-2.25-6.47,7.84,7.84,0,0,0-11.52,0A9.34,9.34,0,0,0,314.65,161.84Z"/><path class="cls-2" d="M362.77,153.62a6.82,6.82,0,0,0-6,2.86,12.92,12.92,0,0,0-2,7.52v14h-9V145.71h9V150a15.12,15.12,0,0,1,4.35-3.36,11.82,11.82,0,0,1,5.31-1.44l.06,8.45Z"/><path class="cls-2" d="M399.49,160.58V178h-9.06V160.34a10.57,10.57,0,0,0-1.17-5.63,4.15,4.15,0,0,0-3.78-1.8,6.45,6.45,0,0,0-4.62,2,7.62,7.62,0,0,0-2,5.72V178h-9V145.71h9v3.66a11.14,11.14,0,0,1,8.52-4.2,9.25,9.25,0,0,1,5.55,1.8,11.71,11.71,0,0,1,3.75,4.38,12.67,12.67,0,0,1,5-4.56,13.72,13.72,0,0,1,6.33-1.62,12.59,12.59,0,0,1,9.18,3.39c2.32,2.26,3.48,5.52,3.48,9.81V178h-9.06V160.34q0-7.43-5.46-7.43a6.45,6.45,0,0,0-4.68,2A7.69,7.69,0,0,0,399.49,160.58Z"/><path class="cls-2" d="M455.65,178h-8.46v-3.91a10.58,10.58,0,0,1-8.61,4.38,12.8,12.8,0,0,1-8.61-3,9.9,9.9,0,0,1-3.48-7.92,8.37,8.37,0,0,1,3.6-7.41q3.6-2.46,9.84-2.46h6.72v-.18c0-3.45-1.82-5.16-5.46-5.16a15,15,0,0,0-4.95.92,16.34,16.34,0,0,0-4.41,2.32l-4-5.82a24.08,24.08,0,0,1,14.52-4.62,15,15,0,0,1,9.6,2.94q3.72,2.94,3.72,9.3Zm-9.06-12.3v-1.57H441c-3.6,0-5.4,1.13-5.4,3.37a3.09,3.09,0,0,0,1.29,2.67,6.25,6.25,0,0,0,3.69.92,6.55,6.55,0,0,0,4.23-1.46A4.78,4.78,0,0,0,446.59,165.69Z"/><path class="cls-2" d="M473.65,152.19v14.46a4.11,4.11,0,0,0,1,2.9,3,3,0,0,0,2.28,1.06,5.2,5.2,0,0,0,4.26-2.28l3.36,6.29a13,13,0,0,1-8.85,3.84,10.73,10.73,0,0,1-11.07-11.39V152.19h-3.78v-6.48h3.78v-9.66h9.06v9.66h7.8v6.48Z"/><path class="cls-2" d="M489.46,141.6a5.36,5.36,0,1,1,3.75,1.53A5.1,5.1,0,0,1,489.46,141.6ZM497.71,178h-9V145.71h9Z"/><path class="cls-2" d="M533.59,173.3a18,18,0,0,1-12.81,5.16,17,17,0,0,1-12.15-4.52q-4.8-4.53-4.8-12.15t4.89-12.12a16.49,16.49,0,0,1,11.55-4.5,16.7,16.7,0,0,1,11.31,4c3.1,2.68,4.65,6.35,4.65,11V165H512.71a6.38,6.38,0,0,0,2.76,4.31,8.77,8.77,0,0,0,5.28,1.69,10.33,10.33,0,0,0,7.8-3.19ZM525,154.17a6.76,6.76,0,0,0-4.53-1.56,8.11,8.11,0,0,0-4.89,1.62,6.18,6.18,0,0,0-2.58,4.38h14.16A6.39,6.39,0,0,0,525,154.17Z"/><circle class="cls-3" cx="32.7" cy="20" r="8"/><circle class="cls-3" cx="32.7" cy="100" r="8"/><circle class="cls-3" cx="32.7" cy="180" r="8"/><circle class="cls-3" cx="112.7" cy="20" r="8"/><circle class="cls-3" cx="112.7" cy="100" r="8"/><circle class="cls-3" cx="112.7" cy="180" r="8"/><circle class="cls-3" cx="192.7" cy="20" r="8"/><circle class="cls-3" cx="192.7" cy="100" r="8"/><circle class="cls-3" cx="192.7" cy="180" r="8"/><path class="cls-4" d="M193,148.45l-95-.3-8-8V46.09l8-8h95l8,8v94.36Zm-87-16.28,79,.25V54.09H106Z"/><path class="cls-5" d="M140.72,168.46H46l-8-8V34l14.4-4.8,94.75,126.5ZM54,152.46h70.76L54,58Z"/><path class="cls-6" d="M101.5,168.46c-30.6,0-55.5-23.6-55.5-52.61s24.9-52.61,55.5-52.61S157,86.84,157,115.85,132.1,168.46,101.5,168.46Zm0-89.22C79.72,79.24,62,95.66,62,115.85s17.72,36.61,39.5,36.61S141,136,141,115.85,123.28,79.24,101.5,79.24Z"/></g></g></svg>