<svg xmlns="http://www.w3.org/2000/svg" viewBox="0 0 560 200"><defs><style>.cls-1{isolation:isolate;}.cls-2{fill:#e6e6e6;}.cls-3{fill:#5dc5cc;}.cls-3,.cls-4{opacity:0.9;}.cls-3,.cls-4,.cls-5{mix-blend-mode:multiply;}.cls-4{fill:#4159a7;}.cls-5{fill:#0e723b;opacity:0.75;}.cls-6{fill:#3d4a4c;}</style></defs><title>open staten informatie logo outlines</title><g class="cls-1"><g id="Layer_1" data-name="Layer 1"><circle class="cls-2" cx="32.7" cy="20" r="8"/><circle class="cls-2" cx="32.7" cy="100" r="8"/><circle class="cls-2" cx="32.7" cy="180" r="8"/><circle class="cls-2" cx="112.7" cy="20" r="8"/><circle class="cls-2" cx="112.7" cy="100" r="8"/><circle class="cls-2" cx="112.7" cy="180" r="8"/><circle class="cls-2" cx="192.7" cy="20" r="8"/><circle class="cls-2" cx="192.7" cy="100" r="8"/><circle class="cls-2" cx="192.7" cy="180" r="8"/><path class="cls-3" d="M193,148.45l-95-.3-8-8V46.09l8-8h95l8,8v94.36Zm-87-16.28,79,.25V54.09H106Z"/><path class="cls-4" d="M140.72,168.46H46l-8-8V34l14.4-4.8,94.75,126.5ZM54,152.46h70.76L54,58Z"/><path class="cls-5" d="M101.5,168.46c-30.6,0-55.5-23.6-55.5-52.61s24.9-52.61,55.5-52.61S157,86.84,157,115.85,132.1,168.46,101.5,168.46Zm0-89.22C79.72,79.24,62,95.66,62,115.85s17.72,36.61,39.5,36.61S141,136,141,115.85,123.28,79.24,101.5,79.24Z"/><path class="cls-6" d="M266.53,52.19a22.85,22.85,0,0,1-31.32,0,20.7,20.7,0,0,1-6.36-15.45,20.75,20.75,0,0,1,6.36-15.45,22.85,22.85,0,0,1,31.32,0,20.75,20.75,0,0,1,6.36,15.45A20.7,20.7,0,0,1,266.53,52.19Zm-3.18-15.42a13.7,13.7,0,0,0-3.6-9.56,11.85,11.85,0,0,0-17.7,0,13.7,13.7,0,0,0-3.6,9.56,13.58,13.58,0,0,0,3.6,9.54,11.93,11.93,0,0,0,17.7,0A13.58,13.58,0,0,0,263.35,36.77Z"/><path class="cls-6" d="M298.09,25.17a13.45,13.45,0,0,1,10.05,4.71,16.66,16.66,0,0,1,4.41,11.85,17,17,0,0,1-4.41,11.94,13.6,13.6,0,0,1-10.32,4.79,11.36,11.36,0,0,1-9.51-4.73V69.62h-9V25.71h9V29.3A13.36,13.36,0,0,1,298.09,25.17Zm-9.9,16.71a9.32,9.32,0,0,0,2.19,6.41,6.79,6.79,0,0,0,5.31,2.49,7.24,7.24,0,0,0,5.46-2.49,8.92,8.92,0,0,0,2.34-6.39,9.69,9.69,0,0,0-2.28-6.54,7,7,0,0,0-5.46-2.63,6.75,6.75,0,0,0-5.37,2.6A9.85,9.85,0,0,0,288.19,41.88Z"/><path class="cls-6" d="M346.63,53.3a18,18,0,0,1-12.81,5.16,17,17,0,0,1-12.15-4.52q-4.8-4.53-4.8-12.16t4.89-12.11a16.49,16.49,0,0,1,11.55-4.5,16.7,16.7,0,0,1,11.31,4c3.1,2.68,4.65,6.35,4.65,11V45H325.75a6.38,6.38,0,0,0,2.76,4.32A8.77,8.77,0,0,0,333.79,51a10.32,10.32,0,0,0,7.8-3.18ZM338,34.17a6.77,6.77,0,0,0-4.53-1.57,8.12,8.12,0,0,0-4.89,1.63A6.18,6.18,0,0,0,326,38.6h14.16A6.38,6.38,0,0,0,338,34.17Z"/><path class="cls-6" d="M364.15,40V58h-9V25.71h9V29.3a12.59,12.59,0,0,1,9.18-4.13,11.36,11.36,0,0,1,8.55,3.59,13.33,13.33,0,0,1,3.45,9.6V58h-9V39.74c0-5-1.82-7.44-5.46-7.44a6.59,6.59,0,0,0-4.71,2A7.64,7.64,0,0,0,364.15,40Z"/><path class="cls-6" d="M241.06,84.42a3.61,3.61,0,0,0-1.35,2.93,3.31,3.31,0,0,0,1.65,2.91Q243,91.34,249,92.81a21.57,21.57,0,0,1,9.27,4.42q3.3,2.94,3.3,8.57a11.36,11.36,0,0,1-4.23,9.16q-4.23,3.5-11.13,3.5-10,0-17.94-7.38l5.58-6.84q6.78,6,12.54,6a6.52,6.52,0,0,0,4-1.12,3.56,3.56,0,0,0,1.47-3,3.51,3.51,0,0,0-1.56-3,20.35,20.35,0,0,0-6.18-2.25c-4.88-1.15-8.45-2.67-10.71-4.53s-3.39-4.77-3.39-8.76a10.87,10.87,0,0,1,4.29-9.21,17.33,17.33,0,0,1,10.71-3.24,25.76,25.76,0,0,1,8.4,1.44,22.68,22.68,0,0,1,7.32,4.08L256,87.44a18.53,18.53,0,0,0-11.28-4.14A5.64,5.64,0,0,0,241.06,84.42Z"/><path class="cls-6" d="M277.93,92.19v14.46a4.11,4.11,0,0,0,1,2.9,3,3,0,0,0,2.28,1,5.17,5.17,0,0,0,4.26-2.28l3.36,6.3a13,13,0,0,1-8.85,3.84,10.75,10.75,0,0,1-11.07-11.4V92.19h-3.78V85.71h3.78V76h9.06v9.67h7.8v6.48Z"/><path class="cls-6" d="M320.41,118H312v-3.9a10.58,10.58,0,0,1-8.61,4.38,12.75,12.75,0,0,1-8.61-3,9.87,9.87,0,0,1-3.48-7.92,8.36,8.36,0,0,1,3.6-7.4q3.6-2.46,9.84-2.46h6.72v-.19q0-5.16-5.46-5.16a15,15,0,0,0-4.95.93,16.62,16.62,0,0,0-4.41,2.31l-4-5.82a24.13,24.13,0,0,1,14.52-4.61,15.07,15.07,0,0,1,9.6,2.93c2.48,2,3.72,5.07,3.72,9.3Zm-9.06-12.29v-1.57h-5.64c-3.6,0-5.4,1.13-5.4,3.36a3.07,3.07,0,0,0,1.29,2.67,6.17,6.17,0,0,0,3.69.93,6.51,6.51,0,0,0,4.23-1.47A4.75,4.75,0,0,0,311.35,105.69Z"/><path class="cls-6" d="M338.41,92.19v14.46a4.11,4.11,0,0,0,1,2.9,3,3,0,0,0,2.28,1,5.17,5.17,0,0,0,4.26-2.28l3.36,6.3a13,13,0,0,1-8.85,3.84,10.75,10.75,0,0,1-11.07-11.4V92.19h-3.78V85.71h3.78V76h9.06v9.67h7.8v6.48Z"/><path class="cls-6" d="M381.43,113.3a18,18,0,0,1-12.81,5.16,17,17,0,0,1-12.15-4.52q-4.8-4.53-4.8-12.16t4.89-12.11a16.49,16.49,0,0,1,11.55-4.5,16.7,16.7,0,0,1,11.31,4c3.1,2.68,4.65,6.35,4.65,11V105H360.55a6.38,6.38,0,0,0,2.76,4.32,8.77,8.77,0,0,0,5.28,1.68,10.32,10.32,0,0,0,7.8-3.18Zm-8.64-19.13a6.77,6.77,0,0,0-4.53-1.57,8.12,8.12,0,0,0-4.89,1.63,6.18,6.18,0,0,0-2.58,4.37H375A6.38,6.38,0,0,0,372.79,94.17Z"/><path class="cls-6" d="M399,100v18h-9V85.71h9V89.3a12.59,12.59,0,0,1,9.18-4.13,11.36,11.36,0,0,1,8.55,3.59,13.33,13.33,0,0,1,3.45,9.6V118h-9V99.74c0-4.95-1.82-7.44-5.46-7.44a6.59,6.59,0,0,0-4.71,2A7.64,7.64,0,0,0,399,100Z"/><path class="cls-6" d="M231.25,136h9.36v42h-9.36Z"/><path class="cls-6" d="M258.13,160v18h-9V145.71h9v3.59a12.59,12.59,0,0,1,9.18-4.13,11.36,11.36,0,0,1,8.55,3.59,13.33,13.33,0,0,1,3.45,9.61V178h-9V159.75q0-7.44-5.46-7.45a6.59,6.59,0,0,0-4.71,1.95A7.65,7.65,0,0,0,258.13,160Z"/><path class="cls-6" d="M297.31,143.84V146h7.8v6.48h-7.8V178h-9.06V152.48h-3.78V146h3.78v-2a10.8,10.8,0,0,1,11.19-11.46,12.46,12.46,0,0,1,8.67,3.61l-3.24,6.06a5.77,5.77,0,0,0-4.38-2.29,2.92,2.92,0,0,0-2.28,1A4.15,4.15,0,0,0,297.31,143.84Z"/><path class="cls-6" d="M341.59,161.84a16,16,0,0,1-4.86,11.83,18,18,0,0,1-24.42,0,16.88,16.88,0,0,1,0-23.68,17.88,17.88,0,0,1,24.42,0A16.09,16.09,0,0,1,341.59,161.84Zm-25.08,0a9.22,9.22,0,0,0,2.25,6.45,7.9,7.9,0,0,0,11.53,0,9.22,9.22,0,0,0,2.25-6.45,9.34,9.34,0,0,0-2.25-6.47,7.83,7.83,0,0,0-11.53,0A9.34,9.34,0,0,0,316.51,161.84Z"/><path class="cls-6" d="M364.63,153.62a6.82,6.82,0,0,0-6,2.86,12.92,12.92,0,0,0-2,7.52v14h-9V145.71h9V150A15.48,15.48,0,0,1,361,146.6a11.93,11.93,0,0,1,5.31-1.43l.06,8.45Z"/><path class="cls-6" d="M401.35,160.58V178h-9.06V160.34a10.57,10.57,0,0,0-1.17-5.63,4.16,4.16,0,0,0-3.78-1.81,6.46,6.46,0,0,0-4.62,2,7.62,7.62,0,0,0-2,5.72V178h-9V145.71h9v3.65a11.16,11.16,0,0,1,8.52-4.19,9.24,9.24,0,0,1,5.55,1.79,11.86,11.86,0,0,1,3.75,4.38,12.74,12.74,0,0,1,5-4.56,13.83,13.83,0,0,1,6.33-1.61,12.63,12.63,0,0,1,9.18,3.38q3.48,3.39,3.48,9.82V178h-9.06V160.34c0-5-1.82-7.44-5.46-7.44a6.46,6.46,0,0,0-4.68,2A7.69,7.69,0,0,0,401.35,160.58Z"/><path class="cls-6" d="M457.51,178h-8.46v-3.91a10.58,10.58,0,0,1-8.61,4.38,12.8,12.8,0,0,1-8.61-3,9.9,9.9,0,0,1-3.48-7.92,8.37,8.37,0,0,1,3.6-7.41q3.6-2.46,9.84-2.46h6.72v-.18q0-5.17-5.46-5.17a15,15,0,0,0-4.95.93,16.34,16.34,0,0,0-4.41,2.32l-4-5.83a24.13,24.13,0,0,1,14.52-4.61,15.07,15.07,0,0,1,9.6,2.93q3.72,2.94,3.72,9.31Zm-9.06-12.3v-1.57h-5.64c-3.6,0-5.4,1.13-5.4,3.37a3.09,3.09,0,0,0,1.29,2.67,6.25,6.25,0,0,0,3.69.92,6.55,6.55,0,0,0,4.23-1.46A4.78,4.78,0,0,0,448.45,165.69Z"/><path class="cls-6" d="M475.51,152.19v14.46a4.11,4.11,0,0,0,1,2.9,3,3,0,0,0,2.28,1.06,5.2,5.2,0,0,0,4.26-2.28l3.36,6.29a13,13,0,0,1-8.85,3.84,10.73,10.73,0,0,1-11.07-11.39V152.19h-3.78v-6.48h3.78V136h9.06v9.67h7.8v6.48Z"/><path class="cls-6" d="M491.32,141.59a5.36,5.36,0,1,1,3.75,1.53A5.08,5.08,0,0,1,491.32,141.59Zm8.25,36.4h-9V145.71h9Z"/><path class="cls-6" d="M535.45,173.3a18,18,0,0,1-12.81,5.16,17,17,0,0,1-12.15-4.52q-4.8-4.53-4.8-12.15t4.89-12.12a16.49,16.49,0,0,1,11.55-4.5,16.7,16.7,0,0,1,11.31,4c3.1,2.68,4.65,6.35,4.65,11V165H514.57a6.38,6.38,0,0,0,2.76,4.31,8.77,8.77,0,0,0,5.28,1.69,10.33,10.33,0,0,0,7.8-3.19Zm-8.64-19.13a6.77,6.77,0,0,0-4.53-1.57,8.12,8.12,0,0,0-4.89,1.63,6.18,6.18,0,0,0-2.58,4.38H529A6.39,6.39,0,0,0,526.81,154.17Z"/></g></g></svg>